<?xml version="1.0" standalone="no"?>
<!DOCTYPE svg PUBLIC "-//W3C//DTD SVG 20010904//EN"
 "http://www.w3.org/TR/2001/REC-SVG-20010904/DTD/svg10.dtd">
<svg version="1.0" xmlns="http://www.w3.org/2000/svg"
 width="80.000000pt" height="80.000000pt" viewBox="0 0 80.000000 80.000000"
 preserveAspectRatio="xMidYMid meet">

<g transform="translate(0.000000,80.000000) scale(0.100000,-0.100000)"
fill="#000000" stroke="none">
<path d="M373 703 c15 -2 39 -2 55 0 15 2 2 4 -28 4 -30 0 -43 -2 -27 -4z"/>
<path d="M325 690 c17 -9 16 -10 -10 -6 -30 4 -92 -20 -81 -31 3 -4 -2 -15
-11 -26 -15 -16 -11 -15 22 5 110 68 232 64 327 -12 27 -22 37 -26 41 -16 5
13 -21 43 -52 61 -9 5 -12 4 -7 -3 9 -15 3 -15 -29 0 -14 6 -21 14 -16 17 5 3
-25 7 -68 9 -42 1 -89 4 -106 7 -25 4 -27 3 -10 -5z m-45 -25 c-14 -8 -29 -14
-35 -14 -5 0 1 6 15 14 14 8 30 14 35 14 6 0 -1 -6 -15 -14z m316 -37 l19 -23
-25 20 c-14 11 -27 21 -29 22 -2 2 0 3 6 3 5 0 18 -10 29 -22z"/>
<path d="M199 633 c-13 -16 -12 -17 4 -4 16 13 21 21 13 21 -2 0 -10 -8 -17
-17z"/>
<path d="M665 505 c15 -44 17 -136 5 -180 -7 -25 -26 -64 -41 -85 -28 -38 -28
-40 -7 -37 12 2 29 14 37 27 10 15 11 21 4 16 -17 -10 -16 -5 8 45 17 36 19
38 15 14 -4 -20 -3 -25 3 -15 12 20 -2 190 -18 215 l-13 20 7 -20z m-23 -287
c-7 -7 -12 -8 -12 -2 0 14 12 26 19 19 2 -3 -1 -11 -7 -17z"/>
<path d="M124 484 c-6 -21 -9 -24 -13 -12 -3 10 -6 -23 -6 -72 0 -49 3 -82 6
-72 4 13 7 11 12 -10 4 -14 9 -34 13 -45 3 -10 -1 -7 -10 7 -26 42 -18 9 9
-37 27 -45 38 -55 29 -25 -5 16 -5 16 9 -1 29 -35 25 -16 -8 39 -40 66 -52
130 -38 199 12 53 9 76 -3 29z m36 -245 c0 -6 -4 -7 -10 -4 -5 3 -10 11 -10
16 0 6 5 7 10 4 6 -3 10 -11 10 -16z"/>
<path d="M290 456 c0 -7 -14 -16 -31 -20 -28 -5 -31 -9 -25 -33 4 -16 3 -23
-2 -16 -4 7 -17 10 -30 6 -18 -4 -20 -8 -11 -20 9 -10 9 -20 1 -38 l-11 -24
46 17 c25 9 38 18 29 20 -33 7 -14 17 37 20 29 2 48 -1 42 -6 -6 -4 -31 -25
-58 -46 -26 -21 -45 -42 -42 -47 14 -22 50 -5 106 48 59 56 59 56 80 37 12
-10 24 -19 28 -19 3 0 5 -3 4 -7 -5 -14 70 -69 90 -66 12 2 20 8 17 13 -3 6
-9 9 -13 7 -5 -1 -6 2 -3 7 3 5 -14 24 -39 42 -24 19 -45 37 -45 40 0 6 102
-9 109 -17 2 -2 -4 -4 -15 -5 -10 0 1 -8 26 -18 25 -11 46 -17 48 -16 2 2 -2
13 -8 25 -9 16 -9 25 0 35 9 11 7 15 -15 21 -16 4 -24 12 -21 19 5 14 -14 25
-42 25 -8 0 -23 6 -31 13 -12 10 -36 12 -96 7 -44 -4 -84 -3 -89 2 -15 13 -36
9 -36 -6z m76 -36 c0 -20 -7 -25 -19 -13 -4 3 -2 12 4 20 15 17 15 17 15 -7z
m49 10 c5 -8 12 -7 23 2 15 11 15 11 4 -4 -10 -13 -10 -17 0 -21 7 -2 -1 -4
-19 -3 -36 1 -48 10 -38 25 8 14 22 14 30 1z m-105 -30 c-18 -11 -24 -6 -16
16 5 14 9 15 19 5 9 -9 9 -14 -3 -21z m157 8 c-3 -8 -6 -5 -6 6 -1 11 2 17 5
13 3 -3 4 -12 1 -19z m41 -1 c2 -12 -1 -15 -12 -11 -19 7 -22 38 -3 32 6 -3
13 -12 15 -21z m42 -2 c0 -8 -7 -15 -15 -15 -8 0 -15 7 -15 15 0 8 7 15 15 15
8 0 15 -7 15 -15z m-275 -15 c3 -5 1 -10 -4 -10 -6 0 -11 5 -11 10 0 6 2 10 4
10 3 0 8 -4 11 -10z"/>
<path d="M390 420 c0 -5 5 -10 10 -10 6 0 10 5 10 10 0 6 -4 10 -10 10 -5 0
-10 -4 -10 -10z"/>
<path d="M703 400 c0 -36 2 -50 4 -32 2 17 2 47 0 65 -2 17 -4 3 -4 -33z"/>
<path d="M93 400 c0 -25 2 -35 4 -22 2 12 2 32 0 45 -2 12 -4 2 -4 -23z"/>
<path d="M383 315 c0 -8 4 -12 9 -9 4 3 8 9 8 15 0 5 -4 9 -8 9 -5 0 -9 -7 -9
-15z"/>
<path d="M445 288 c-2 -7 -5 -22 -7 -32 -2 -11 -9 -21 -17 -24 -9 -3 -11 2 -6
17 9 28 -3 27 -15 -1 -8 -21 -9 -20 -9 10 -1 39 -26 44 -35 6 -4 -15 -5 -29
-2 -31 3 -3 8 8 13 23 l7 29 6 -30 c5 -26 9 -30 40 -30 34 -1 35 0 35 37 1 39
-2 48 -10 26z"/>
<path d="M326 273 c-4 -9 -3 -20 2 -25 6 -6 10 1 10 16 0 30 -3 32 -12 9z"/>
<path d="M253 146 c0 -8 6 -12 15 -8 9 3 13 1 9 -5 -5 -7 1 -9 15 -6 16 3 19
2 10 -5 -8 -5 21 -8 80 -6 140 5 168 9 183 27 9 9 10 12 3 7 -16 -14 -31 -13
-22 2 5 8 2 9 -12 3 -97 -40 -169 -44 -236 -11 -38 20 -45 20 -45 2z"/>
<path d="M383 93 c9 -2 25 -2 35 0 9 3 1 5 -18 5 -19 0 -27 -2 -17 -5z"/>
</g>
</svg>
